<mxfile host="app.diagrams.net" modified="2024-04-03T07:34:52.301Z" agent="Mozilla/5.0 (Windows NT 10.0; Win64; x64) AppleWebKit/537.36 (KHTML, like Gecko) Chrome/123.0.0.0 Safari/537.36 Edg/123.0.0.0" version="24.2.1" etag="kWuSgOyWs_DFc2ZwH2Im" type="github">
  <diagram name="第 1 页" id="u-PfMqS1MsLNq6r3i-Y_">
    <mxGraphModel>
      <root>
        <mxCell id="0" />
        <mxCell id="1" parent="0" />
      </root>
    </mxGraphModel>
  </diagram>
</mxfile>
